<?xml version="1.0" encoding="UTF-8" standalone="no"?>
<!-- Created with Inkscape (http://www.inkscape.org/) -->

<svg
   xmlns:dc="http://purl.org/dc/elements/1.1/"
   xmlns:cc="http://creativecommons.org/ns#"
   xmlns:rdf="http://www.w3.org/1999/02/22-rdf-syntax-ns#"
   xmlns:svg="http://www.w3.org/2000/svg"
   xmlns="http://www.w3.org/2000/svg"
   xmlns:sodipodi="http://sodipodi.sourceforge.net/DTD/sodipodi-0.dtd"
   xmlns:inkscape="http://www.inkscape.org/namespaces/inkscape"
   version="1.1"
   id="svg2"
   width="8573.0254"
   height="11881.936"
   viewBox="0 0 8573.0254 11881.936"
   sodipodi:docname="gun-left.svg"
   inkscape:version="0.92.3 (2405546, 2018-03-11)">
  <metadata
     id="metadata8">
    <rdf:RDF>
      <cc:Work
         rdf:about="">
        <dc:format>image/svg+xml</dc:format>
        <dc:type
           rdf:resource="http://purl.org/dc/dcmitype/StillImage" />
        <dc:title></dc:title>
      </cc:Work>
    </rdf:RDF>
  </metadata>
  <defs
     id="defs6" />
  <sodipodi:namedview
     pagecolor="#ffffff"
     bordercolor="#666666"
     borderopacity="1"
     objecttolerance="10"
     gridtolerance="10"
     guidetolerance="10"
     inkscape:pageopacity="0"
     inkscape:pageshadow="2"
     inkscape:window-width="1920"
     inkscape:window-height="1057"
     id="namedview4"
     showgrid="false"
     inkscape:zoom="0.01"
     inkscape:cx="-49453.949"
     inkscape:cy="23276.068"
     inkscape:window-x="1912"
     inkscape:window-y="-8"
     inkscape:window-maximized="1"
     inkscape:current-layer="svg2"
     fit-margin-top="0"
     fit-margin-left="0"
     fit-margin-right="0"
     fit-margin-bottom="0" />
  <g
     id="g1023"
     transform="translate(59855.86,10295.882)">
    <path
       style="fill:#ffffff;fill-opacity:1;stroke:#ffffff;stroke-width:4.68226814px;stroke-linecap:butt;stroke-linejoin:miter;stroke-opacity:1"
       d="m -59344.39,-2754.5953 c 23.835,-24.299 61.808,-20.5669 90.369,-25.4849 141.687,-140.835 281.79,-283.4898 424.464,-423.197 35.488,-26.2025 80.292,-15.384 120.56,-12.7377 32.544,1.1029 57.877,-21.1383 75.872,-45.479 217.661,-215.7913 433.686,-433.42 652.364,-648.0692 45.004,-36.9768 94.196,-69.5942 150.845,-85.3781 65.984,-23.2592 129.242,-53.6278 185.504,-95.57 98.563,-63.2641 180.464,-147.9568 265.259,-227.8401 758.226,-760.0997 1518.235,-1518.4219 2277.413,-2277.5727 -22.078,-28.0489 -56.793,-48.1588 -72.433,-80.3208 1.985,-35.2021 34.876,-60.1465 50.136,-90.3311 80.537,-117.2961 159.196,-236.1472 242.106,-351.624 31.974,-30.9328 84.602,-17.1581 109.046,16.6259 29.695,29.159 59.388,58.3196 89.082,87.4792 41.991,-27.1121 99.614,-26.8369 138.165,6.467 73.674,53.1425 147.999,111.284 199.881,187.7095 27.35,37.9741 67.338,77.1833 60.662,128.0814 -3.561,59.0297 -59,90.4889 -94.249,130.5667 l -291.777,291.777 c 50.094,33.7403 107.999,85.7411 96.791,153.2175 -17.251,53.1525 -67.677,84.5403 -102.139,126.1427 -217.239,221.4717 -438.157,439.3008 -658.719,657.4531 24.84,100.5528 13.099,220.4088 -64.989,295.299 -263.588,286.3869 -535.901,564.8038 -805.678,845.4489 52.353,40.1128 111.931,93.727 110.455,165.1738 -6.413,52.2744 -59.185,80.736 -89.272,118.7962 -158.049,161.3629 -317.708,321.1392 -477.262,481.0142 18.45,32.394 0.371,68.023 -21.539,93.2525 -159.367,234.6695 -323.211,466.8962 -482.145,701.6704 -12.419,32.7851 11.002,62.1188 27.955,87.6799 25.338,43.7289 15.106,99.8407 -19.386,135.4089 -60.759,84.258 -120.125,169.5208 -179.647,254.6589 0,0 232.593,145.1402 299.277,302.7562 66.684,157.6161 87.898,366.7579 -18.19,551.6529 -106.088,184.8962 -242.485,303.10914 -406.163,363.73029 -163.678,60.62069 -333.419,18.1829 -412.228,-6.06514 -74.507,-22.92491 -149.376,-63.56795 -157.583,-68.07315 l -25.885,42.61924 c -55.308,91.05271 -126.119,176.17568 -153.485,280.33052 -37.724,172.99748 -36.054,367.51326 61.854,521.40311 88.226,151.128315 209.631,288.47747 367.136,368.70293 57.788,34.95329 116.367,70.18245 181.704,89.94264 63.651,24.73597 142.397,46.13039 175.179,112.49166 19.463,51.21126 -6.251,113.30021 -51.662,142.38707 -87.831,59.78683 -177.292,117.86366 -257.096,188.512 -179.079,151.3491 -323.138,338.41993 -459.485,527.77173 -71.345,98.6761 -125.503,217.0093 -230.617,283.8353 -73.857,56.3537 -198.793,47.748 -250.358,-34.4531 -65.471,-123.079 -57.453,-268.5647 -94.902,-401.029 -36.692,-155.15706 -88.459,-306.12781 -148.026,-453.87899 -71.49,-186.57318 -147.853,-371.96316 -201.879,-564.571959 -27.43,-111.631018 -63.258,-222.940871 -63.229,-339.066881 -5.961,-108.89589 -6.501,-218.919 17.705,-325.88805 35.766,-189.11839 89.902,-378.90034 192.787,-542.66322 46.427,-78.0277 101.963,-149.9896 164.948,-215.1807 -35.546,-81.271 -55.471,-172.6262 -33.673,-260.4142 6.231,-32.349 14.119,-63.642 25.253,-94.5849 -97.925,-63.165 -199.56,-132.6128 -255.667,-237.885 -12.719,-20.9084 -26.444,-40.6041 -37.229,-62.4744 -99.733,38.1851 -213.243,46.3432 -312.558,3.1892 -71.273,-24.4342 -154.789,-49.643 -225.456,-9.7579 -27.889,9.5189 -51.288,40.4089 -82.778,35.573 -36.203,-4.8019 -56.318,-50.3151 -31.976,-78.6281 50.36,-61.8959 126.208,-97.31 199.052,-127.0149 61.151,-23.2119 126.703,-29.5152 188.886,-48.5237 98.496,-34.2594 160.774,-129.6261 192.805,-224.2476 9.077,-32.6034 20.796,-78.3375 -13.727,-100.7559 -17.977,-18.4929 -35.823,-37.1096 -53.684,-55.714 -41.872,9.116 -97.072,-1.0348 -112.142,-46.8566 -23.008,-37.9574 -17.235,-87.1013 15.395,-117.49 z m -379.729,810.4091 c 2.017,-1.6028 5.741,-2.255 11.769,-0.4651 -8.506,18.6261 -17.817,5.2801 -11.769,0.4651 z m 2276.078,-26.7687 -286.909,472.341 c 0.489,-0.6731 3.789,-5.2644 3.789,-5.2644 0,0 53.582,19.2885 107.165,30.0053 53.583,10.716 90.021,12.8547 128.6,17.1408 38.579,4.2882 115.729,-34.289 145.735,-55.7205 30.006,-21.4331 49.3,-23.5784 90.021,-4.2871 40.723,19.289 23.583,79.2997 15.01,87.8728 -8.574,8.5738 -57.87,75.0169 -173.607,105.023 -115.738,30.0051 -130.748,15.002 -173.614,15.0028 -42.866,0 -139.308,-19.29 -139.308,-19.29 0,0 -76.522,-7.6437 -112.078,7.7852 l -42.575,70.0982 c 1.518,6.2248 41.733,166.1184 175.488,192.8708 136.397,27.2801 269.769,-15.154 381.92,-121.2408 112.148,-106.0895 218.233,-266.7362 209.14,-421.3202 -9.093,-154.585 -142.453,-269.7671 -203.075,-306.1391 -47.939,-28.7638 -103.779,-54.8963 -125.702,-64.8778 z"
       id="path1232-7"
       inkscape:connector-curvature="0" />
    <path
       inkscape:connector-curvature="0"
       id="path1234-4"
       d="m -58794.213,-3145.9252 c 0,0 24.649,-11.7896 32.151,-8.576 7.502,3.2162 40.718,10.721 51.434,10.7234 10.717,0 36.444,2.1446 57.877,-6.4282 21.433,-8.573 60.015,-51.4419 60.015,-51.4419 l 651.555,-653.7013 c 0,0 63.23,-48.2241 79.306,-53.5817 16.075,-5.358 98.59,-34.2985 103.949,-37.5121 5.359,-3.2139 103.946,-48.2248 155.385,-88.9469 51.439,-40.7231 115.74,-83.5819 163.965,-127.5204 48.223,-43.9366 57.869,-57.8689 57.869,-57.8689 l 419.012,421.1579 c 0,0 -35.363,20.3553 -45.007,72.8656 -9.646,52.5108 66.443,113.5976 66.443,113.5976 l 220.755,218.6199 -505.819,735.1482 c 0,0 -17.145,30 -15.003,57.8618 2.145,27.8631 15.007,62.1569 25.724,70.7323 10.717,8.5719 26.788,31.0791 24.645,43.9388 -2.144,12.86 5.355,3.2153 -12.862,34.2932 -18.219,31.0757 -701.922,980.552 -701.922,980.552 0,0 -33.225,50.365 -40.727,83.5858 -7.502,33.2211 -17.151,83.5922 -13.935,106.097 3.214,22.5043 -11.779,67.5131 -21.424,96.4479 -9.645,28.9344 -37.512,69.6513 -37.512,69.6513 0,0 -30.012,-81.4393 -49.301,-96.4421 -19.29,-15.0033 -150.027,-120.023 -190.751,-130.7397 -40.721,-10.7163 -222.899,-64.3023 -257.192,-60.016 -34.292,4.2866 -150.031,8.5744 -169.321,17.1474 -19.288,8.574 -70.73,21.432 -70.73,21.432 0,0 -22.506,-61.0828 -24.651,-129.6681 -2.143,-68.5859 16.081,-148.9518 41.801,-204.6789 25.718,-55.726 66.443,-115.7436 66.443,-115.7436 0,0 -131.816,-65.3723 -198.257,-151.1032 -66.442,-85.7318 -122.167,-175.75 -129.667,-268.9819 -7.504,-93.2334 -8.574,-66.4427 -4.287,-120.025 4.284,-53.5824 8.574,-75.012 8.574,-75.012 l -255.054,-257.2 z"
       style="fill:none;stroke:#000000;stroke-width:4.68226814;stroke-linecap:butt;stroke-linejoin:miter;stroke-miterlimit:4;stroke-dasharray:none;stroke-opacity:1" />
    <path
       inkscape:connector-curvature="0"
       id="path1236-2"
       d="m -58794.213,-3145.9252 c 0,0 24.649,-11.7896 32.151,-8.576 7.502,3.2162 40.718,10.721 51.434,10.7234 10.717,0 36.444,2.1446 57.877,-6.4282 21.433,-8.573 60.015,-51.4419 60.015,-51.4419 l 651.555,-653.7013 c 0,0 63.23,-48.2241 79.306,-53.5817 16.075,-5.358 98.59,-34.2985 103.949,-37.5121 5.359,-3.2139 103.946,-48.2248 155.385,-88.9469 51.439,-40.7231 115.74,-83.5819 163.965,-127.5204 48.223,-43.9366 57.869,-57.8689 57.869,-57.8689 l 419.012,421.1579 c 0,0 -35.363,20.3553 -45.007,72.8656 -9.646,52.5108 66.443,113.5976 66.443,113.5976 l 220.755,218.6199 -505.819,735.1482 c 0,0 -17.145,30 -15.003,57.8618 2.145,27.8631 15.007,62.1569 25.724,70.7323 10.717,8.5719 26.788,31.0791 24.645,43.9388 -2.144,12.86 5.355,3.2153 -12.862,34.2932 -18.219,31.0757 -701.922,980.552 -701.922,980.552 0,0 -33.225,50.365 -40.727,83.5858 -7.502,33.2211 -17.151,83.5922 -13.935,106.097 3.214,22.5043 -11.779,67.5131 -21.424,96.4479 -9.645,28.9344 -37.512,69.6513 -37.512,69.6513 0,0 -30.012,-81.4393 -49.301,-96.4421 -19.29,-15.0033 -150.027,-120.023 -190.751,-130.7397 -40.721,-10.7163 -222.899,-64.3023 -257.192,-60.016 -34.292,4.2866 -150.031,8.5744 -169.321,17.1474 -19.288,8.574 -70.73,21.432 -70.73,21.432 0,0 -22.506,-61.0828 -24.651,-129.6681 -2.143,-68.5859 16.081,-148.9518 41.801,-204.6789 25.718,-55.726 66.443,-115.7436 66.443,-115.7436 0,0 -131.816,-65.3723 -198.257,-151.1032 -66.442,-85.7318 -122.167,-175.75 -129.667,-268.9819 -7.504,-93.2334 -8.574,-66.4427 -4.287,-120.025 4.284,-53.5824 8.574,-75.012 8.574,-75.012 l -255.054,-257.2 z"
       style="fill:#000000;fill-opacity:1;stroke:#000000;stroke-width:4.68226814;stroke-linecap:butt;stroke-linejoin:miter;stroke-miterlimit:4;stroke-dasharray:none;stroke-opacity:1" />
    <path
       style="fill:#ffffff;fill-opacity:1;stroke:#ffffff;stroke-width:4.68226814px;stroke-linecap:butt;stroke-linejoin:miter;stroke-opacity:1"
       d="m -56880.744,-3448.5739 54.653,58.9409 -470.451,684.7819 c 0,0 -39.653,69.6571 -22.505,127.526 17.146,57.8683 10.716,47.1521 22.504,63.2272 11.788,16.0757 16.075,24.6471 16.075,24.6471 l -694.426,964.4817 c 0,0 -46.082,84.6587 -53.583,117.88 -7.502,33.2223 -17.146,107.1651 -15.003,113.5962 2.144,6.429 -83.588,-70.7291 -141.458,-98.5918 -57.868,-27.863 -167.176,-75.0165 -231.475,-79.3014 -64.298,-4.2871 -100.735,-17.1482 -195.039,-8.5738 -94.305,8.5739 -85.733,19.2877 -99.662,13.9309 -13.933,-5.357 11.787,-159.6753 18.216,-170.3908 6.432,-10.7171 360.073,-357.929 360.073,-357.929 z"
       id="path1238-4"
       inkscape:connector-curvature="0" />
    <path
       style="fill:#ffffff;fill-opacity:1;stroke:#000000;stroke-width:4.68226814px;stroke-linecap:butt;stroke-linejoin:miter;stroke-opacity:1"
       d="m -57236.987,-3968.9637 156.1,156.1004 -1767.115,1761.0534 c 0,0 -68.2,-110.6354 -66.684,-124.2731 1.516,-13.6413 -19.703,-95.4791 -19.703,-95.4791 z"
       id="path1240-6"
       inkscape:connector-curvature="0" />
    <path
       style="fill:#ffffff;fill-opacity:1;stroke:#000000;stroke-width:4.68226814px;stroke-linecap:butt;stroke-linejoin:miter;stroke-opacity:1"
       d="m -56960.642,-3530.3758 -1650.334,1654.6207 c 0,0 -66.441,-32.1498 -109.309,-62.1546 -42.866,-30.0084 -62.155,-49.2965 -62.155,-49.2965 l 1699.631,-1691.0567 c 0,0 -2.143,23.5757 36.436,62.1548 38.58,38.5791 85.731,85.7319 85.731,85.7319 z"
       id="path1242-1"
       inkscape:connector-curvature="0" />
    <path
       sodipodi:nodetypes="ccccsccccsccc"
       inkscape:connector-curvature="0"
       id="path1242-2-3"
       d="m -57861.273,-3873.6489 v -0.01 0.01 c 0,0 151.659,-52.9059 220.236,-83.7684 95.094,-57.3755 120.739,-73.2486 187.272,-133.1289 l 40.88,-32.0411 83.695,81.4866 13.384,8.9635 c -545.827,551.205 -1135.858,1134.7025 -1614.902,1611.8724 0,0 -5.257,-24.7394 -59.25,-78.7321 l -119.984,-119.9852 v 0 z"
       style="fill:#ffffff;fill-opacity:1;stroke:#000000;stroke-width:4.82087088px;stroke-linecap:butt;stroke-linejoin:miter;stroke-opacity:1" />
    <path
       style="fill:#ffffff;fill-opacity:1;stroke:#000000;stroke-width:23.41134071;stroke-linecap:butt;stroke-linejoin:miter;stroke-miterlimit:4;stroke-dasharray:none;stroke-opacity:1"
       d="m -57968.024,-3459.138 631.979,638.0412 c 0,0 34.858,50.0118 -4.547,89.4167 -39.404,39.4041 -651.683,654.7107 -651.683,654.7107 0,0 -136.396,118.2112 -294.012,127.3062 -157.616,9.0911 -297.045,-48.4981 -356.15,-98.5099 -59.107,-50.0136 -92.449,-80.3238 -122.759,-137.9141 -30.31,-57.5905 -69.715,-133.369 -80.324,-228.8459 -10.608,-95.4791 24.249,-215.2058 46.981,-259.1567 22.734,-43.9503 46.983,-86.386 66.685,-109.1185 19.702,-22.7329 683.507,-680.4765 683.507,-680.4765 0,0 40.918,-13.6392 80.323,4.5468 z"
       id="path1244-2"
       inkscape:connector-curvature="0" />
    <path
       inkscape:connector-curvature="0"
       id="ellipse1246-3"
       d="m -59349.825,-2610.6539 a 107.8407,106.64597 45 0 0 151.665,0.8451 107.8407,106.64597 45 0 0 -0.845,-151.6651 107.8407,106.64597 45 0 0 -151.665,-0.8452 107.8407,106.64597 45 0 0 0.845,151.6652 z"
       style="fill:#ffffff;fill-opacity:1;stroke:none;stroke-width:22.17743301;stroke-miterlimit:4;stroke-dasharray:none;stroke-opacity:1" />
    <path
       style="fill:#000000;fill-opacity:1;stroke:#000000;stroke-width:4.68226814px;stroke-linecap:butt;stroke-linejoin:miter;stroke-opacity:1"
       d="m -58739.369,-2641.4433 576.546,576.5455 c 0,0 -152.173,70.7287 -289.345,23.576 -137.17,-47.153 -177.894,-96.4479 -203.612,-126.4542 -25.721,-30.006 -83.589,-92.1623 -102.879,-188.6092 -19.29,-96.4487 -17.145,-128.5989 -4.286,-188.6108 12.859,-60.0117 23.577,-96.4482 23.577,-96.4482 z"
       id="path1248-7"
       inkscape:connector-curvature="0" />
    <path
       style="fill:#000000;fill-opacity:1;stroke:#000000;stroke-width:4.68226814px;stroke-linecap:butt;stroke-linejoin:miter;stroke-opacity:1"
       d="m -57837.957,-3203.7751 -547.108,550.1411 c 0,0 -30.311,42.434 -36.373,78.807 -6.062,36.3729 7.577,86.3859 22.73,113.6646 15.158,27.2803 25.766,37.8881 46.983,53.0445 21.218,15.1547 83.354,40.9202 110.635,34.8568 27.279,-6.0619 50.012,-1.5146 86.384,-25.7642 36.375,-24.2488 95.481,-89.4166 95.481,-89.4166 l 466.784,-469.8173 60.621,63.6529 -544.077,544.0785 c 0,0 -45.464,60.6217 -39.404,121.243 6.063,60.6215 48.498,109.119 48.498,109.119 v 3.0307 l -31.826,28.7953 -603.184,-606.2144 27.279,-39.4036 c 0,0 34.858,37.888 80.324,46.9808 45.467,9.0937 96.994,-3.0322 127.306,-21.2173 30.31,-18.186 569.841,-560.7477 569.841,-560.7477 z"
       id="path1250-1"
       inkscape:connector-curvature="0" />
    <path
       style="fill:#000000;fill-opacity:1;stroke:#000000;stroke-width:4.68226814px;stroke-linecap:butt;stroke-linejoin:miter;stroke-opacity:1"
       d="m -58021.862,-3397.467 65.17,66.6829 -541.805,541.805 c 0,0 -18.944,18.944 -50.77,20.4593 -31.828,1.5146 -53.802,-8.3353 -62.895,-15.9134 -9.094,-7.5766 -11.367,-11.3666 -11.367,-11.3666 z"
       id="path1252-6"
       inkscape:connector-curvature="0" />
    <path
       inkscape:connector-curvature="0"
       id="path1254-8"
       d="m -57710.931,-3086.5369 -66.683,-65.1682 -541.803,541.8029 c 0,0 -18.946,18.9461 -20.462,50.77 -1.516,31.8269 8.336,53.8033 15.914,62.896 7.576,9.0918 11.367,11.3665 11.367,11.3665 z"
       style="fill:#000000;fill-opacity:1;stroke:#000000;stroke-width:4.68226814px;stroke-linecap:butt;stroke-linejoin:miter;stroke-opacity:1" />
    <path
       style="fill:#000000;fill-opacity:1;stroke:#000000;stroke-width:4.68226814px;stroke-linecap:butt;stroke-linejoin:miter;stroke-opacity:1"
       d="m -57445.528,-2821.3661 -612.982,615.124 c 0,0 -3.215,-22.5051 2.144,-51.439 5.357,-28.935 45.009,-64.2979 45.009,-64.2979 l 532.607,-534.7508 z"
       id="path1256-9"
       inkscape:connector-curvature="0" />
    <path
       inkscape:connector-curvature="0"
       id="ellipse1258-3"
       d="m -59324.703,-2639.2153 a 69.136284,68.842979 45 0 0 97.566,0.2085 69.136284,68.842979 45 0 0 -0.207,-97.5673 69.136284,68.842979 45 0 0 -97.566,-0.2071 69.136284,68.842979 45 0 0 0.207,97.5659 z"
       style="fill:#000000;fill-opacity:1;stroke:none;stroke-width:47.11484146;stroke-miterlimit:4;stroke-dasharray:none;stroke-opacity:1" />
    <path
       inkscape:connector-curvature="0"
       id="ellipse1260-5"
       d="m -56787.986,-3843.9924 a 8.5731678,945.38104 45 0 0 674.55,-662.4226 8.5731678,945.38104 45 0 0 662.422,-674.5479 8.5731678,945.38104 45 0 0 -674.547,662.423 8.5731678,945.38104 45 0 0 -662.425,674.5475 z"
       style="fill:#000000;fill-opacity:1;stroke:none;stroke-width:21.23766136;stroke-miterlimit:4;stroke-dasharray:none;stroke-opacity:1" />
    <path
       inkscape:connector-curvature="0"
       id="ellipse1262-0"
       d="m -56907.88,-3983.1607 a 25.719501,1517.4506 45 0 0 1091.187,-1054.8134 25.719501,1517.4506 45 0 0 1054.812,-1091.1857 25.719501,1517.4506 45 0 0 -1091.185,1054.8129 25.719501,1517.4506 45 0 0 -1054.814,1091.1862 z"
       style="fill:#000000;fill-opacity:1;stroke:none;stroke-width:23.41134262;stroke-miterlimit:4;stroke-dasharray:none;stroke-opacity:1" />
    <path
       style="fill:#000000;fill-opacity:1;stroke:#000000;stroke-width:4.68226814px;stroke-linecap:butt;stroke-linejoin:miter;stroke-opacity:1"
       d="m -57031.714,-3988.8281 2687.046,-2688.5618 c 0,0 7.577,-10.6091 5.306,-25.0072 -2.274,-14.3969 -22.735,-46.9816 -22.735,-46.9816 l -32.584,-44.7083 -2718.871,2723.419 z"
       id="path1264-1"
       inkscape:connector-curvature="0" />
    <path
       style="fill:#ffffff;fill-opacity:1;stroke:#ffffff;stroke-width:70.23402405;stroke-linecap:butt;stroke-linejoin:miter;stroke-miterlimit:4;stroke-dasharray:none;stroke-opacity:1"
       d="m -55656.57,-7430.9098 -3443.035,3443.0353 c 0,0 -63.982,51.9851 -125.964,9.9971 -61.983,-41.9888 -257.928,-297.9166 -257.928,-297.9166 0,0 -217.94,-325.9095 -279.921,-567.8415 -61.983,-241.9316 -69.982,-625.8252 -39.989,-815.77 29.989,-189.9481 193.944,-625.8257 265.924,-757.789 71.98,-131.9628 411.886,-571.8391 441.876,-601.832 29.993,-29.9917 501.861,-497.8588 635.822,-599.8308 133.962,-101.9711 407.887,-275.9219 635.823,-371.895 227.936,-95.9728 617.826,-157.956 751.788,-159.955 133.963,-1.9999 575.838,51.985 675.81,107.9691 99.972,55.9847 371.895,171.9507 521.855,293.9178 149.958,121.9658 229.934,221.9382 229.934,221.9382 0,0 -1.999,81.977 -11.994,95.9731 z"
       id="path1266-5"
       inkscape:connector-curvature="0" />
    <path
       inkscape:connector-curvature="0"
       id="circle1268-8"
       d="m -57528.073,-7631.18 a 96.994316,96.994316 0 0 0 137.17,0 96.994316,96.994316 0 0 0 0,-137.1701 96.994316,96.994316 0 0 0 -137.17,-1e-4 96.994316,96.994316 0 0 0 0,137.1702 z"
       style="fill:#000000;fill-opacity:1;stroke:#ffffff;stroke-width:4.68226814;stroke-miterlimit:4;stroke-dasharray:none;stroke-opacity:1" />
    <path
       inkscape:connector-curvature="0"
       id="circle1270-5"
       d="m -58038.176,-7129.6488 a 96.994316,96.994316 0 0 0 137.172,-2e-4 96.994316,96.994316 0 0 0 0,-137.1701 96.994316,96.994316 0 0 0 -137.172,10e-5 96.994316,96.994316 0 0 0 0,137.1708 z"
       style="fill:#000000;fill-opacity:1;stroke:#ffffff;stroke-width:4.68226814;stroke-miterlimit:4;stroke-dasharray:none;stroke-opacity:1" />
    <path
       inkscape:connector-curvature="0"
       id="circle1272-4"
       d="m -58976.938,-6208.0328 a 96.994316,96.994316 0 0 0 137.172,0 96.994316,96.994316 0 0 0 0,-137.1715 96.994316,96.994316 0 0 0 -137.17,5e-4 96.994316,96.994316 0 0 0 0,137.1718 z"
       style="fill:#000000;fill-opacity:1;stroke:#ffffff;stroke-width:4.68226814;stroke-miterlimit:4;stroke-dasharray:none;stroke-opacity:1" />
    <path
       inkscape:connector-curvature="0"
       id="circle1274-2"
       d="m -58518.273,-6658.1248 a 96.994316,96.994316 0 0 0 137.171,-5e-4 96.994316,96.994316 0 0 0 0,-137.1701 96.994316,96.994316 0 0 0 -137.17,6e-4 96.994316,96.994316 0 0 0 0,137.1695 z"
       style="fill:#000000;fill-opacity:1;stroke:#ffffff;stroke-width:4.68226814;stroke-miterlimit:4;stroke-dasharray:none;stroke-opacity:1" />
    <path
       inkscape:connector-curvature="0"
       id="circle1276-7"
       d="m -59435.602,-6169.4538 a 96.994316,96.994316 0 0 0 137.17,1e-4 96.994316,96.994316 0 0 0 0,-137.1713 96.994316,96.994316 0 0 0 -137.171,-4e-4 96.994316,96.994316 0 0 0 0,137.1726 z"
       style="fill:#000000;fill-opacity:1;stroke:#ffffff;stroke-width:4.68226814;stroke-miterlimit:4;stroke-dasharray:none;stroke-opacity:1" />
    <path
       inkscape:connector-curvature="0"
       id="circle1278-1"
       d="m -59427.028,-5732.2241 a 96.994316,96.994316 0 0 0 137.169,2e-4 96.994316,96.994316 0 0 0 0,-137.1699 96.994316,96.994316 0 0 0 -137.171,-4e-4 96.994316,96.994316 0 0 0 0,137.1701 z"
       style="fill:#000000;fill-opacity:1;stroke:#ffffff;stroke-width:4.68226814;stroke-miterlimit:4;stroke-dasharray:none;stroke-opacity:1" />
    <path
       inkscape:connector-curvature="0"
       id="circle1280-1"
       d="m -58475.406,-7223.9538 a 96.994316,96.994316 0 0 0 137.169,0 96.994316,96.994316 0 0 0 0,-137.1702 96.994316,96.994316 0 0 0 -137.169,0 96.994316,96.994316 0 0 0 0,137.1706 z"
       style="fill:#000000;fill-opacity:1;stroke:#ffffff;stroke-width:4.68226814;stroke-miterlimit:4;stroke-dasharray:none;stroke-opacity:1" />
    <path
       inkscape:connector-curvature="0"
       id="circle1282-6"
       d="m -57043.688,-7112.503 a 96.994316,96.994316 0 0 0 137.17,10e-5 96.994316,96.994316 0 0 0 0,-137.1711 96.994316,96.994316 0 0 0 -137.172,0 96.994316,96.994316 0 0 0 0,137.1707 z"
       style="fill:#000000;fill-opacity:1;stroke:#ffffff;stroke-width:4.68226814;stroke-miterlimit:4;stroke-dasharray:none;stroke-opacity:1" />
    <path
       inkscape:connector-curvature="0"
       id="circle1284-3"
       d="m -57532.359,-6658.1239 a 96.994316,96.994316 0 0 0 137.17,10e-5 96.994316,96.994316 0 0 0 0,-137.1701 96.994316,96.994316 0 0 0 -137.17,-2e-4 96.994316,96.994316 0 0 0 0,137.1717 z"
       style="fill:#000000;fill-opacity:1;stroke:#ffffff;stroke-width:4.68226814;stroke-miterlimit:4;stroke-dasharray:none;stroke-opacity:1" />
    <path
       inkscape:connector-curvature="0"
       id="circle1286-1"
       d="m -59457.035,-4699.156 a 96.994316,96.994316 0 0 0 137.17,1e-4 96.994316,96.994316 0 0 0 0,-137.1698 96.994316,96.994316 0 0 0 -137.171,-5e-4 96.994316,96.994316 0 0 0 0,137.1718 z"
       style="fill:#000000;fill-opacity:1;stroke:#ffffff;stroke-width:4.68226814;stroke-miterlimit:4;stroke-dasharray:none;stroke-opacity:1" />
    <path
       inkscape:connector-curvature="0"
       id="circle1288-1"
       d="m -58021.029,-6160.8809 a 96.994316,96.994316 0 0 0 137.17,1e-4 96.994316,96.994316 0 0 0 0,-137.1702 96.994316,96.994316 0 0 0 -137.17,0 96.994316,96.994316 0 0 0 0,137.1701 z"
       style="fill:#000000;fill-opacity:1;stroke:#ffffff;stroke-width:4.68226814;stroke-miterlimit:4;stroke-dasharray:none;stroke-opacity:1" />
    <path
       inkscape:connector-curvature="0"
       id="circle1290-3"
       d="m -58021.03,-7618.3189 a 96.994316,96.994316 0 0 0 137.17,0 96.994316,96.994316 0 0 0 0,-137.1712 96.994316,96.994316 0 0 0 -137.172,2e-4 96.994316,96.994316 0 0 0 0,137.1706 z"
       style="fill:#000000;fill-opacity:1;stroke:#ffffff;stroke-width:4.68226814;stroke-miterlimit:4;stroke-dasharray:none;stroke-opacity:1" />
    <path
       inkscape:connector-curvature="0"
       id="circle1292-4"
       d="m -58994.083,-6713.851 a 96.994316,96.994316 0 0 0 137.17,10e-5 96.994316,96.994316 0 0 0 0,-137.1703 96.994316,96.994316 0 0 0 -137.171,-1e-4 96.994316,96.994316 0 0 0 0,137.1711 z"
       style="fill:#000000;fill-opacity:1;stroke:#ffffff;stroke-width:4.68226814;stroke-miterlimit:4;stroke-dasharray:none;stroke-opacity:1" />
    <path
       inkscape:connector-curvature="0"
       id="circle1294-5"
       d="m -58938.358,-5200.6858 a 96.994316,96.994316 0 0 0 137.169,-5e-4 96.994316,96.994316 0 0 0 0,-137.1709 96.994316,96.994316 0 0 0 -137.172,-10e-5 96.994316,96.994316 0 0 0 10e-4,137.171 z"
       style="fill:#000000;fill-opacity:1;stroke:#ffffff;stroke-width:4.68226814;stroke-miterlimit:4;stroke-dasharray:none;stroke-opacity:1" />
    <path
       inkscape:connector-curvature="0"
       id="circle1296-7"
       d="m -58912.639,-5757.9423 a 96.994316,96.994316 0 0 0 137.171,5e-4 96.994316,96.994316 0 0 0 0,-137.1713 96.994316,96.994316 0 0 0 -137.17,2e-4 96.994316,96.994316 0 0 0 0,137.1707 z"
       style="fill:#000000;fill-opacity:1;stroke:#ffffff;stroke-width:4.68226814;stroke-miterlimit:4;stroke-dasharray:none;stroke-opacity:1" />
    <path
       inkscape:connector-curvature="0"
       id="circle1298-3"
       d="m -58509.7,-6152.3071 a 96.994316,96.994316 0 0 0 137.17,2e-4 96.994316,96.994316 0 0 0 0,-137.1713 96.994316,96.994316 0 0 0 -137.172,10e-5 96.994316,96.994316 0 0 0 0,137.1718 z"
       style="fill:#000000;fill-opacity:1;stroke:#ffffff;stroke-width:4.68226814;stroke-miterlimit:4;stroke-dasharray:none;stroke-opacity:1" />
    <path
       inkscape:connector-curvature="0"
       id="circle1300-6"
       d="m -58085.329,-6602.3998 a 96.994316,96.994316 0 0 0 137.17,0 96.994316,96.994316 0 0 0 0,-137.1714 96.994316,96.994316 0 0 0 -137.172,2e-4 96.994316,96.994316 0 0 0 0,137.1718 z"
       style="fill:#000000;fill-opacity:1;stroke:#ffffff;stroke-width:4.68226814;stroke-miterlimit:4;stroke-dasharray:none;stroke-opacity:1" />
    <path
       inkscape:connector-curvature="0"
       id="circle1302-1"
       d="m -57532.359,-7189.6619 a 96.994316,96.994316 0 0 0 137.171,-4e-4 96.994316,96.994316 0 0 0 0,-137.1705 96.994316,96.994316 0 0 0 -137.171,-5e-4 96.994316,96.994316 0 0 0 0,137.1702 z"
       style="fill:#000000;fill-opacity:1;stroke:#ffffff;stroke-width:4.68226814;stroke-miterlimit:4;stroke-dasharray:none;stroke-opacity:1" />
    <path
       inkscape:connector-curvature="0"
       id="circle1304-3"
       d="m -57030.83,-7691.1908 a 96.994316,96.994316 0 0 0 137.171,-4e-4 96.994316,96.994316 0 0 0 0,-137.1705 96.994316,96.994316 0 0 0 -137.171,-5e-4 96.994316,96.994316 0 0 0 0,137.1701 z"
       style="fill:#000000;fill-opacity:1;stroke:#ffffff;stroke-width:4.68226814;stroke-miterlimit:4;stroke-dasharray:none;stroke-opacity:1" />
    <path
       inkscape:connector-curvature="0"
       id="circle1306-6"
       d="m -58428.256,-5642.2039 a 96.994316,96.994316 0 0 0 137.17,0 96.994316,96.994316 0 0 0 0,-137.1701 96.994316,96.994316 0 0 0 -137.17,0 96.994316,96.994316 0 0 0 0,137.1718 z"
       style="fill:#000000;fill-opacity:1;stroke:#ffffff;stroke-width:4.68226814;stroke-miterlimit:4;stroke-dasharray:none;stroke-opacity:1" />
    <path
       inkscape:connector-curvature="0"
       id="circle1308-6"
       d="m -59478.468,-5234.9782 a 96.994316,96.994316 0 0 0 137.17,0 96.994316,96.994316 0 0 0 0,-137.1718 96.994316,96.994316 0 0 0 -137.169,7e-4 96.994316,96.994316 0 0 0 0,137.1713 z"
       style="fill:#000000;fill-opacity:1;stroke:#ffffff;stroke-width:4.68226814;stroke-miterlimit:4;stroke-dasharray:none;stroke-opacity:1" />
    <path
       inkscape:connector-curvature="0"
       id="circle1310-7"
       d="m -56537.871,-7609.747 a 96.994316,96.994316 0 0 0 137.17,0 96.994316,96.994316 0 0 0 0,-137.17 96.994316,96.994316 0 0 0 -137.17,0 96.994316,96.994316 0 0 0 0,137.17 z"
       style="fill:#000000;fill-opacity:1;stroke:#ffffff;stroke-width:4.68226814;stroke-miterlimit:4;stroke-dasharray:none;stroke-opacity:1" />
    <path
       inkscape:connector-curvature="0"
       id="circle1312-1"
       d="m -56379.269,-7151.0819 a 96.994316,96.994316 0 0 0 137.172,-1e-4 96.994316,96.994316 0 0 0 0,-137.1702 96.994316,96.994316 0 0 0 -137.172,2e-4 96.994316,96.994316 0 0 0 0,137.1707 z"
       style="fill:#000000;fill-opacity:1;stroke:#ffffff;stroke-width:4.68226814;stroke-miterlimit:4;stroke-dasharray:none;stroke-opacity:1" />
    <path
       inkscape:connector-curvature="0"
       id="circle1314-8"
       d="m -56966.531,-6606.6859 a 96.994316,96.994316 0 0 0 137.172,-2e-4 96.994316,96.994316 0 0 0 0,-137.1702 96.994316,96.994316 0 0 0 -137.17,-10e-5 96.994316,96.994316 0 0 0 0,137.1693 z"
       style="fill:#000000;fill-opacity:1;stroke:#ffffff;stroke-width:4.68226814;stroke-miterlimit:4;stroke-dasharray:none;stroke-opacity:1" />
    <path
       inkscape:connector-curvature="0"
       id="circle1316-3"
       d="m -57510.925,-6130.8752 a 96.994316,96.994316 0 0 0 137.169,4e-4 96.994316,96.994316 0 0 0 0,-137.1725 96.994316,96.994316 0 0 0 -137.169,5e-4 96.994316,96.994316 0 0 0 0,137.1695 z"
       style="fill:#000000;fill-opacity:1;stroke:#ffffff;stroke-width:4.68226814;stroke-miterlimit:4;stroke-dasharray:none;stroke-opacity:1" />
    <path
       inkscape:connector-curvature="0"
       id="circle1318-9"
       d="m -58381.106,-5166.3924 a 96.994316,96.994316 0 0 0 137.173,5e-4 96.994316,96.994316 0 0 0 0,-137.1701 96.994316,96.994316 0 0 0 -137.172,2e-4 96.994316,96.994316 0 0 0 0,137.1718 z"
       style="fill:#000000;fill-opacity:1;stroke:#ffffff;stroke-width:4.68226814;stroke-miterlimit:4;stroke-dasharray:none;stroke-opacity:1" />
    <path
       inkscape:connector-curvature="0"
       id="circle1320-2"
       d="m -57960.298,-5666.8429 a 96.994316,96.994316 0 0 0 137.17,10e-5 96.994316,96.994316 0 0 0 0,-137.1702 96.994316,96.994316 0 0 0 -137.17,-2e-4 96.994316,96.994316 0 0 0 0,137.1713 z"
       style="fill:#000000;fill-opacity:1;stroke:#ffffff;stroke-width:4.68226814;stroke-miterlimit:4;stroke-dasharray:none;stroke-opacity:1" />
    <path
       inkscape:connector-curvature="0"
       id="circle1322-1"
       d="m -58946.931,-4634.8572 a 96.994316,96.994316 0 0 0 137.171,4e-4 96.994316,96.994316 0 0 0 0,-137.1702 96.994316,96.994316 0 0 0 -137.172,3e-4 96.994316,96.994316 0 0 0 0,137.1715 z"
       style="fill:#000000;fill-opacity:1;stroke:#ffffff;stroke-width:4.68226814;stroke-miterlimit:4;stroke-dasharray:none;stroke-opacity:1" />
    <path
       style="fill:#ffffff;fill-opacity:1;stroke:#ffffff;stroke-width:67.10785675;stroke-linecap:butt;stroke-linejoin:miter;stroke-miterlimit:4;stroke-dasharray:none;stroke-opacity:1"
       d="m -53255.725,-5237.0939 -3528.968,3526.0707 c 0,0 -30.41,68.0589 -11.584,107.1579 18.826,39.0985 147.703,144.8084 183.905,163.632 36.203,18.8255 267.895,134.6722 340.298,123.0861 72.405,-11.5827 92.677,26.066 283.824,-17.3747 191.146,-43.4443 262.103,-97.022 341.746,-162.1849 79.644,-65.1641 2583.374,-2580.4773 2583.374,-2580.4773 0,0 114.398,-146.2551 146.256,-247.6211 31.858,-101.3659 72.402,-223.0036 59.37,-357.676 -13.031,-134.671 -73.851,-314.2318 -149.152,-418.4938 -75.298,-104.2618 -128.879,-146.256 -128.879,-146.256 0,0 -89.78,-20.2728 -120.19,10.1371 z"
       id="path1326-5"
       inkscape:connector-curvature="0" />
    <path
       style="fill:#ffffff;fill-opacity:1;stroke:#ffffff;stroke-width:7.25053263px;stroke-linecap:butt;stroke-linejoin:miter;stroke-opacity:1"
       d="m -51286.265,-10294.024 c 0,0 -70.349,205.913 -172.741,352.1641 -102.39,146.2474 -164.11,255.8129 -317.908,433.5343 -153.799,177.7214 -301.759,333.6547 -458.372,464.3535 -156.617,130.7002 -587.676,390.3116 -587.676,390.3116 0,0 -253.278,155.5924 -407.216,305.5435 -153.942,149.9542 -294.523,274.5872 -464.213,486.1407 -169.692,211.5583 -307.312,410.9793 -307.312,410.9793 0,0 79.549,-191.1897 143.035,-304.5158 63.484,-113.3222 290.365,-427.921 398.651,-546.1763 108.284,-118.2507 317.249,-329.2113 450.996,-433.0519 133.747,-103.8449 589.667,-388.3168 589.667,-388.3168 0,0 239.009,-153.2852 418.812,-327.1062 179.801,-173.8202 308.873,-298.9067 490.928,-536.7807 182.05,-237.8703 223.349,-307.0793 223.349,-307.0793 z"
       id="path1328-1"
       inkscape:connector-curvature="0" />
    <path
       inkscape:connector-curvature="0"
       id="path1330-7"
       d="m -51470.909,-9759.782 c 0,0 -70.353,205.9166 -172.741,352.1632 -102.39,146.2481 -164.108,255.8129 -317.907,433.535 -153.798,177.7207 -301.758,333.654 -458.373,464.3542 -156.617,130.6995 -587.673,390.3078 -587.673,390.3078 0,0 -253.277,155.5927 -407.219,305.5468 -153.94,149.9508 -294.52,274.585 -464.212,486.1421 -169.691,211.5559 -307.314,410.9791 -307.314,410.9791 0,0 79.548,-191.189 143.036,-304.5151 63.486,-113.3273 290.368,-427.9259 398.651,-546.175 108.287,-118.2573 317.251,-329.2138 450.999,-433.0582 133.744,-103.8407 589.664,-388.3125 589.664,-388.3125 0,0 239.011,-153.2873 418.811,-327.1083 179.799,-173.8181 308.877,-298.9081 490.929,-536.7803 182.05,-237.87 223.349,-307.0788 223.349,-307.0788 z"
       style="fill:#ffffff;fill-opacity:1;stroke:#ffffff;stroke-width:7.25053263px;stroke-linecap:butt;stroke-linejoin:miter;stroke-opacity:1" />
    <path
       style="fill:#0f0f0f;fill-opacity:1;stroke:#000000;stroke-width:4.68226814px;stroke-linecap:butt;stroke-linejoin:miter;stroke-opacity:1"
       d="m -54458.962,-6848.7894 -2720.388,2723.4202 -42.437,-42.4371 2720.387,-2720.3874 z"
       id="path1332-7"
       inkscape:connector-curvature="0" />
    <path
       style="fill:#000000;fill-opacity:1;stroke:#000000;stroke-width:4.68226814px;stroke-linecap:butt;stroke-linejoin:miter;stroke-opacity:1"
       d="m -54564.67,-6932.3642 -2711.294,2711.2953 -39.403,-39.4039 2684.014,-2687.046 c 0,0 19.702,-15.1552 37.511,-4.1682 17.807,10.9882 29.172,19.3228 29.172,19.3228 z"
       id="path1334-0"
       inkscape:connector-curvature="0" />
    <path
       inkscape:connector-curvature="0"
       id="path944-9"
       d="M -58451.564,-4089.5628 Z"
       style="fill:none;stroke:#000000;stroke-width:1px;stroke-linecap:butt;stroke-linejoin:miter;stroke-opacity:1" />
  </g>
</svg>
