<?xml version="1.0" encoding="UTF-8" standalone="no"?>
<!-- Created with Inkscape (http://www.inkscape.org/) -->

<svg
   xmlns:dc="http://purl.org/dc/elements/1.1/"
   xmlns:cc="http://creativecommons.org/ns#"
   xmlns:rdf="http://www.w3.org/1999/02/22-rdf-syntax-ns#"
   xmlns:svg="http://www.w3.org/2000/svg"
   xmlns="http://www.w3.org/2000/svg"
   xmlns:sodipodi="http://sodipodi.sourceforge.net/DTD/sodipodi-0.dtd"
   xmlns:inkscape="http://www.inkscape.org/namespaces/inkscape"
   version="1.1"
   id="svg2"
   width="8573.0254"
   height="11881.936"
   viewBox="0 0 8573.0254 11881.936"
   sodipodi:docname="gun-right.svg"
   inkscape:version="0.92.3 (2405546, 2018-03-11)">
  <metadata
     id="metadata8">
    <rdf:RDF>
      <cc:Work
         rdf:about="">
        <dc:format>image/svg+xml</dc:format>
        <dc:type
           rdf:resource="http://purl.org/dc/dcmitype/StillImage" />
        <dc:title></dc:title>
      </cc:Work>
    </rdf:RDF>
  </metadata>
  <defs
     id="defs6" />
  <sodipodi:namedview
     pagecolor="#ffffff"
     bordercolor="#666666"
     borderopacity="1"
     objecttolerance="10"
     gridtolerance="10"
     guidetolerance="10"
     inkscape:pageopacity="0"
     inkscape:pageshadow="2"
     inkscape:window-width="1920"
     inkscape:window-height="1057"
     id="namedview4"
     showgrid="false"
     inkscape:zoom="0.04"
     inkscape:cx="12208.399"
     inkscape:cy="4975.3746"
     inkscape:window-x="1912"
     inkscape:window-y="-8"
     inkscape:window-maximized="1"
     inkscape:current-layer="svg2"
     fit-margin-top="0"
     fit-margin-left="0"
     fit-margin-right="0"
     fit-margin-bottom="0" />
  <g
     id="g1023"
     transform="translate(54735.097,40598.141)">
    <path
       style="fill:#ffffff;fill-opacity:1;stroke:#ffffff;stroke-width:4.68226814px;stroke-linecap:butt;stroke-linejoin:miter;stroke-opacity:1"
       d="m -46673.541,-33056.855 c -23.835,-24.299 -61.808,-20.566 -90.369,-25.484 -141.688,-140.836 -281.79,-283.49 -424.464,-423.197 -35.489,-26.203 -80.293,-15.383 -120.561,-12.739 -32.543,1.104 -57.876,-21.138 -75.872,-45.479 -217.66,-215.79 -433.685,-433.419 -652.363,-648.069 -45.004,-36.976 -94.197,-69.592 -150.845,-85.377 -65.985,-23.258 -129.242,-53.628 -185.505,-95.569 -98.563,-63.264 -180.464,-147.959 -265.258,-227.842 -758.226,-760.099 -1518.235,-1518.421 -2277.413,-2277.572 22.078,-28.049 56.792,-48.158 72.432,-80.32 -1.984,-35.203 -34.875,-60.146 -50.135,-90.331 -80.537,-117.297 -159.196,-236.148 -242.107,-351.625 -31.973,-30.933 -84.601,-17.158 -109.045,16.626 -29.695,29.159 -59.388,58.321 -89.083,87.48 -41.99,-27.113 -99.614,-26.838 -138.164,6.466 -73.675,53.144 -148,111.285 -199.881,187.71 -27.351,37.975 -67.338,77.183 -60.662,128.083 3.561,59.029 58.999,90.487 94.249,130.565 l 291.777,291.777 c -50.094,33.74 -107.999,85.741 -96.792,153.217 17.252,53.153 67.678,84.54 102.14,126.143 217.239,221.472 438.157,439.3 658.719,657.453 -24.84,100.553 -13.099,220.409 64.989,295.3 263.588,286.386 535.901,564.803 805.678,845.448 -52.353,40.113 -111.931,93.727 -110.455,165.174 6.412,52.274 59.185,80.736 89.271,118.796 158.05,161.363 317.709,321.139 477.262,481.014 -18.45,32.394 -0.371,68.023 21.54,93.253 159.367,234.669 323.211,466.896 482.145,701.67 12.418,32.784 -11.002,62.119 -27.955,87.68 -25.338,43.728 -15.108,99.841 19.386,135.409 60.759,84.257 120.124,169.522 179.647,254.659 0,0 -232.594,145.14 -299.277,302.756 -66.684,157.616 -87.898,366.758 18.19,551.653 106.088,184.896 242.485,303.109 406.162,363.73 163.679,60.621 333.42,18.183 412.229,-6.065 74.506,-22.926 149.375,-63.568 157.583,-68.074 l 25.885,42.621 c 55.307,91.053 126.118,176.176 153.484,280.331 37.724,172.996 36.055,367.512 -61.853,521.403 -88.226,151.127 -209.631,288.476 -367.137,368.702 -57.788,34.953 -116.366,70.183 -181.703,89.942 -63.652,24.737 -142.397,46.132 -175.179,112.493 -19.463,51.21 6.25,113.299 51.662,142.386 87.831,59.788 177.292,117.864 257.095,188.512 179.079,151.35 323.139,338.421 459.486,527.772 71.345,98.676 125.503,217.011 230.616,283.835 73.857,56.354 198.794,47.748 250.359,-34.453 65.471,-123.079 57.452,-268.565 94.902,-401.028 36.692,-155.158 88.458,-306.128 148.026,-453.879 71.489,-186.573 147.853,-371.965 201.879,-564.573 27.43,-111.631 63.258,-222.941 63.229,-339.067 5.96,-108.896 6.501,-218.919 -17.705,-325.887 -35.767,-189.119 -89.903,-378.9 -192.787,-542.665 -46.428,-78.027 -101.963,-149.989 -164.948,-215.18 35.545,-81.271 55.47,-172.626 33.672,-260.414 -6.23,-32.349 -14.118,-63.642 -25.252,-94.586 97.924,-63.165 199.561,-132.613 255.667,-237.884 12.717,-20.908 26.444,-40.604 37.228,-62.473 99.733,38.185 213.244,46.342 312.559,3.187 71.272,-24.432 154.789,-49.642 225.455,-9.757 27.89,9.519 51.289,40.409 82.779,35.572 36.202,-4.801 56.317,-50.313 31.976,-78.627 -50.36,-61.896 -126.208,-97.31 -199.052,-127.015 -61.152,-23.212 -126.703,-29.516 -188.887,-48.524 -98.495,-34.259 -160.774,-129.626 -192.806,-224.247 -9.075,-32.604 -20.795,-78.339 13.728,-100.755 17.977,-18.493 35.824,-37.111 53.685,-55.716 41.872,9.116 97.072,-1.034 112.142,-46.856 23.008,-37.957 17.235,-87.101 -15.396,-117.491 z m 379.728,810.411 c -2.016,-1.604 -5.741,-2.255 -11.769,-0.465 8.507,18.625 17.818,5.279 11.769,0.465 z m -2276.077,-26.771 286.908,472.342 c -0.488,-0.674 -3.79,-5.264 -3.79,-5.264 0,0 -53.581,19.288 -107.163,30.005 -53.583,10.716 -90.021,12.855 -128.601,17.142 -38.578,4.287 -115.729,-34.289 -145.735,-55.722 -30.006,-21.433 -49.299,-23.578 -90.021,-4.287 -40.722,19.289 -23.582,79.3 -15.009,87.873 8.574,8.574 57.87,75.017 173.607,105.023 115.738,30.006 130.748,15.002 173.614,15.003 42.866,0 139.308,-19.29 139.308,-19.29 0,0 76.521,-7.645 112.078,7.785 l 42.575,70.098 c -1.518,6.225 -41.734,166.119 -175.488,192.87 -136.398,27.28 -269.77,-15.153 -381.92,-121.24 -112.149,-106.088 -218.233,-266.736 -209.14,-421.321 9.093,-154.584 142.453,-269.766 203.075,-306.138 47.939,-28.764 103.777,-54.896 125.702,-64.879 z"
       id="path1232"
       inkscape:connector-curvature="0" />
    <path
       inkscape:connector-curvature="0"
       id="path1234"
       d="m -47223.718,-33448.185 c 0,0 -24.65,-11.789 -32.152,-8.574 -7.501,3.215 -40.718,10.721 -51.434,10.722 -10.717,0 -36.443,2.145 -57.876,-6.429 -21.433,-8.572 -60.016,-51.441 -60.016,-51.441 l -651.554,-653.701 c 0,0 -63.231,-48.223 -79.306,-53.582 -16.075,-5.358 -98.591,-34.297 -103.949,-37.512 -5.359,-3.215 -103.946,-48.225 -155.385,-88.947 -51.439,-40.723 -115.741,-83.583 -163.965,-127.52 -48.224,-43.938 -57.869,-57.869 -57.869,-57.869 l -419.012,421.158 c 0,0 35.363,20.355 45.007,72.865 9.645,52.511 -66.443,113.598 -66.443,113.598 l -220.755,218.62 505.819,735.148 c 0,0 17.145,29.999 15.002,57.862 -2.144,27.863 -15.007,62.158 -25.724,70.732 -10.716,8.572 -26.787,31.079 -24.644,43.939 2.144,12.86 -5.356,3.215 12.862,34.293 18.218,31.077 701.922,980.552 701.922,980.552 0,0 33.225,50.365 40.727,83.586 7.502,33.221 17.15,83.592 13.935,106.097 -3.214,22.504 11.779,67.513 21.424,96.448 9.644,28.934 37.512,69.651 37.512,69.651 0,0 30.012,-81.439 49.301,-96.442 19.29,-15.003 150.027,-120.023 190.75,-130.74 40.722,-10.716 222.9,-64.302 257.193,-60.016 34.292,4.287 150.03,8.576 169.32,17.149 19.289,8.573 70.731,21.43 70.731,21.43 0,0 22.506,-61.082 24.65,-129.667 2.143,-68.585 -16.08,-148.953 -41.8,-204.679 -25.719,-55.725 -66.443,-115.744 -66.443,-115.744 0,0 131.815,-65.371 198.257,-151.103 66.442,-85.732 122.166,-175.749 129.667,-268.982 7.502,-93.233 8.574,-66.443 4.287,-120.025 -4.286,-53.582 -8.574,-75.012 -8.574,-75.012 l 255.053,-257.2 z"
       style="fill:none;stroke:#000000;stroke-width:4.68226814;stroke-linecap:butt;stroke-linejoin:miter;stroke-miterlimit:4;stroke-dasharray:none;stroke-opacity:1" />
    <path
       inkscape:connector-curvature="0"
       id="path1236"
       d="m -47223.718,-33448.185 c 0,0 -24.65,-11.789 -32.152,-8.574 -7.501,3.215 -40.718,10.721 -51.434,10.722 -10.717,0 -36.443,2.145 -57.876,-6.429 -21.433,-8.572 -60.016,-51.441 -60.016,-51.441 l -651.554,-653.701 c 0,0 -63.231,-48.223 -79.306,-53.582 -16.075,-5.358 -98.591,-34.297 -103.949,-37.512 -5.359,-3.215 -103.946,-48.225 -155.385,-88.947 -51.439,-40.723 -115.741,-83.583 -163.965,-127.52 -48.224,-43.938 -57.869,-57.869 -57.869,-57.869 l -419.012,421.158 c 0,0 35.363,20.355 45.007,72.865 9.645,52.511 -66.443,113.598 -66.443,113.598 l -220.755,218.62 505.819,735.148 c 0,0 17.145,29.999 15.002,57.862 -2.144,27.863 -15.007,62.158 -25.724,70.732 -10.716,8.572 -26.787,31.079 -24.644,43.939 2.144,12.86 -5.356,3.215 12.862,34.293 18.218,31.077 701.922,980.552 701.922,980.552 0,0 33.225,50.365 40.727,83.586 7.502,33.221 17.15,83.592 13.935,106.097 -3.214,22.504 11.779,67.513 21.424,96.448 9.644,28.934 37.512,69.651 37.512,69.651 0,0 30.012,-81.439 49.301,-96.442 19.29,-15.003 150.027,-120.023 190.75,-130.74 40.722,-10.716 222.9,-64.302 257.193,-60.016 34.292,4.287 150.03,8.576 169.32,17.149 19.289,8.573 70.731,21.43 70.731,21.43 0,0 22.506,-61.082 24.65,-129.667 2.143,-68.585 -16.08,-148.953 -41.8,-204.679 -25.719,-55.725 -66.443,-115.744 -66.443,-115.744 0,0 131.815,-65.371 198.257,-151.103 66.442,-85.732 122.166,-175.749 129.667,-268.982 7.502,-93.233 8.574,-66.443 4.287,-120.025 -4.286,-53.582 -8.574,-75.012 -8.574,-75.012 l 255.053,-257.2 z"
       style="fill:#000000;fill-opacity:1;stroke:#000000;stroke-width:4.68226814;stroke-linecap:butt;stroke-linejoin:miter;stroke-miterlimit:4;stroke-dasharray:none;stroke-opacity:1" />
    <path
       style="fill:#ffffff;fill-opacity:1;stroke:#ffffff;stroke-width:4.68226814px;stroke-linecap:butt;stroke-linejoin:miter;stroke-opacity:1"
       d="m -49137.188,-33750.833 -54.653,58.941 470.452,684.781 c 0,0 39.652,69.657 22.505,127.527 -17.147,57.868 -10.717,47.152 -22.504,63.227 -11.789,16.074 -16.076,24.647 -16.076,24.647 l 694.427,964.482 c 0,0 46.081,84.66 53.582,117.881 7.502,33.221 17.147,107.164 15.004,113.595 -2.144,6.429 83.588,-70.729 141.457,-98.592 57.869,-27.863 167.176,-75.015 231.476,-79.301 64.298,-4.287 100.734,-17.147 195.039,-8.574 94.305,8.574 85.732,19.289 99.662,13.931 13.933,-5.358 -11.787,-159.675 -18.217,-170.391 -6.431,-10.717 -360.073,-357.93 -360.073,-357.93 z"
       id="path1238"
       inkscape:connector-curvature="0" />
    <path
       style="fill:#ffffff;fill-opacity:1;stroke:#000000;stroke-width:4.68226814px;stroke-linecap:butt;stroke-linejoin:miter;stroke-opacity:1"
       d="m -48780.944,-34271.223 -156.101,156.1 1767.115,1761.053 c 0,0 68.199,-110.634 66.684,-124.273 -1.516,-13.641 19.703,-95.479 19.703,-95.479 z"
       id="path1240"
       inkscape:connector-curvature="0" />
    <path
       style="fill:#ffffff;fill-opacity:1;stroke:#000000;stroke-width:4.68226814px;stroke-linecap:butt;stroke-linejoin:miter;stroke-opacity:1"
       d="m -49057.289,-33832.635 1650.334,1654.621 c 0,0 66.441,-32.15 109.308,-62.155 42.866,-30.007 62.156,-49.296 62.156,-49.296 l -1699.631,-1691.057 c 0,0 2.143,23.576 -36.436,62.155 -38.58,38.579 -85.731,85.732 -85.731,85.732 z"
       id="path1242"
       inkscape:connector-curvature="0" />
    <path
       sodipodi:nodetypes="ccccsccccsccc"
       inkscape:connector-curvature="0"
       id="path1242-2"
       d="m -48156.659,-34175.908 v 0.01 -0.01 c 0,0 -151.659,-52.907 -220.236,-83.767 -95.093,-57.377 -120.738,-73.25 -187.271,-133.131 l -40.88,-32.04 -83.695,81.485 -13.384,8.965 c 545.826,551.206 1135.858,1134.702 1614.902,1611.872 0,0 5.257,-24.739 59.25,-78.732 l 119.984,-119.985 v 0 z"
       style="fill:#ffffff;fill-opacity:1;stroke:#000000;stroke-width:4.82087088px;stroke-linecap:butt;stroke-linejoin:miter;stroke-opacity:1" />
    <path
       style="fill:#ffffff;fill-opacity:1;stroke:#000000;stroke-width:23.41134071;stroke-linecap:butt;stroke-linejoin:miter;stroke-miterlimit:4;stroke-dasharray:none;stroke-opacity:1"
       d="m -48049.908,-33761.397 -631.978,638.041 c 0,0 -34.858,50.012 4.547,89.416 39.404,39.405 651.681,654.712 651.681,654.712 0,0 136.397,118.212 294.014,127.305 157.615,9.093 297.045,-48.497 356.15,-98.509 59.106,-50.014 92.449,-80.324 122.759,-137.914 30.31,-57.591 69.714,-133.368 80.324,-228.846 10.608,-95.479 -24.249,-215.206 -46.982,-259.157 -22.733,-43.951 -46.982,-86.386 -66.684,-109.119 -19.702,-22.733 -683.508,-680.476 -683.508,-680.476 0,0 -40.918,-13.639 -80.323,4.547 z"
       id="path1244"
       inkscape:connector-curvature="0" />
    <path
       inkscape:connector-curvature="0"
       id="ellipse1246"
       d="m -46668.106,-32912.913 a 106.64597,107.8407 45 0 1 -151.666,0.845 106.64597,107.8407 45 0 1 0.845,-151.665 106.64597,107.8407 45 0 1 151.666,-0.845 106.64597,107.8407 45 0 1 -0.845,151.665 z"
       style="fill:#ffffff;fill-opacity:1;stroke:none;stroke-width:22.17743301;stroke-miterlimit:4;stroke-dasharray:none;stroke-opacity:1" />
    <path
       style="fill:#000000;fill-opacity:1;stroke:#000000;stroke-width:4.68226814px;stroke-linecap:butt;stroke-linejoin:miter;stroke-opacity:1"
       d="m -47278.562,-32943.702 -576.546,576.545 c 0,0 152.173,70.728 289.344,23.576 137.171,-47.153 177.894,-96.449 203.613,-126.454 25.72,-30.007 83.588,-92.161 102.878,-188.61 19.29,-96.448 17.146,-128.598 4.286,-188.61 -12.859,-60.012 -23.576,-96.448 -23.576,-96.448 z"
       id="path1248"
       inkscape:connector-curvature="0" />
    <path
       style="fill:#000000;fill-opacity:1;stroke:#000000;stroke-width:4.68226814px;stroke-linecap:butt;stroke-linejoin:miter;stroke-opacity:1"
       d="m -48179.974,-33506.034 547.108,550.14 c 0,0 30.311,42.435 36.373,78.808 6.062,36.373 -7.577,86.386 -22.732,113.665 -15.156,27.28 -25.765,37.889 -46.982,53.044 -21.217,15.155 -83.354,40.92 -110.634,34.857 -27.28,-6.062 -50.013,-1.515 -86.386,-25.764 -36.373,-24.249 -95.479,-89.417 -95.479,-89.417 l -466.785,-469.816 -60.621,63.653 544.078,544.077 c 0,0 45.464,60.621 39.403,121.243 -6.062,60.622 -48.497,109.119 -48.497,109.119 v 3.031 l 31.826,28.795 603.184,-606.214 -27.28,-39.404 c 0,0 -34.857,37.888 -80.323,46.981 -45.467,9.093 -96.995,-3.031 -127.306,-21.217 -30.31,-18.187 -569.841,-560.749 -569.841,-560.749 z"
       id="path1250"
       inkscape:connector-curvature="0" />
    <path
       style="fill:#000000;fill-opacity:1;stroke:#000000;stroke-width:4.68226814px;stroke-linecap:butt;stroke-linejoin:miter;stroke-opacity:1"
       d="m -47996.07,-33699.726 -65.169,66.683 541.805,541.804 c 0,0 18.944,18.945 50.77,20.46 31.827,1.516 53.802,-8.335 62.895,-15.913 9.093,-7.577 11.366,-11.367 11.366,-11.367 z"
       id="path1252"
       inkscape:connector-curvature="0" />
    <path
       inkscape:connector-curvature="0"
       id="path1254"
       d="m -48307,-33388.796 66.683,-65.168 541.803,541.803 c 0,0 18.946,18.945 20.461,50.771 1.516,31.827 -8.335,53.802 -15.913,62.895 -7.577,9.093 -11.367,11.366 -11.367,11.366 z"
       style="fill:#000000;fill-opacity:1;stroke:#000000;stroke-width:4.68226814px;stroke-linecap:butt;stroke-linejoin:miter;stroke-opacity:1" />
    <path
       style="fill:#000000;fill-opacity:1;stroke:#000000;stroke-width:4.68226814px;stroke-linecap:butt;stroke-linejoin:miter;stroke-opacity:1"
       d="m -48572.403,-33123.625 612.981,615.125 c 0,0 3.215,-22.505 -2.143,-51.44 -5.358,-28.934 -45.009,-64.298 -45.009,-64.298 l -532.608,-534.752 z"
       id="path1256"
       inkscape:connector-curvature="0" />
    <path
       inkscape:connector-curvature="0"
       id="ellipse1258"
       d="m -46693.228,-32941.474 a 68.842979,69.136284 45 0 1 -97.567,0.208 68.842979,69.136284 45 0 1 0.208,-97.567 68.842979,69.136284 45 0 1 97.566,-0.207 68.842979,69.136284 45 0 1 -0.207,97.566 z"
       style="fill:#000000;fill-opacity:1;stroke:none;stroke-width:47.11484146;stroke-miterlimit:4;stroke-dasharray:none;stroke-opacity:1" />
    <path
       inkscape:connector-curvature="0"
       id="ellipse1260"
       d="m -49229.947,-34146.251 a 945.38104,8.5731678 45 0 1 -674.548,-662.424 945.38104,8.5731678 45 0 1 -662.423,-674.547 945.38104,8.5731678 45 0 1 674.548,662.423 945.38104,8.5731678 45 0 1 662.423,674.548 z"
       style="fill:#000000;fill-opacity:1;stroke:none;stroke-width:21.23766136;stroke-miterlimit:4;stroke-dasharray:none;stroke-opacity:1" />
    <path
       inkscape:connector-curvature="0"
       id="ellipse1262"
       d="m -49110.052,-34285.42 a 1517.4506,25.719501 45 0 1 -1091.186,-1054.813 1517.4506,25.719501 45 0 1 -1054.813,-1091.186 1517.4506,25.719501 45 0 1 1091.186,1054.813 1517.4506,25.719501 45 0 1 1054.813,1091.186 z"
       style="fill:#000000;fill-opacity:1;stroke:none;stroke-width:23.41134262;stroke-miterlimit:4;stroke-dasharray:none;stroke-opacity:1" />
    <path
       style="fill:#000000;fill-opacity:1;stroke:#000000;stroke-width:4.68226814px;stroke-linecap:butt;stroke-linejoin:miter;stroke-opacity:1"
       d="m -48986.218,-34291.088 -2687.045,-2688.561 c 0,0 -7.578,-10.609 -5.306,-25.007 2.274,-14.397 22.734,-46.981 22.734,-46.981 l 32.584,-44.708 2718.872,2723.418 z"
       id="path1264"
       inkscape:connector-curvature="0" />
    <path
       style="fill:#ffffff;fill-opacity:1;stroke:#ffffff;stroke-width:70.23402405;stroke-linecap:butt;stroke-linejoin:miter;stroke-miterlimit:4;stroke-dasharray:none;stroke-opacity:1"
       d="m -50361.361,-37733.169 3443.036,3443.035 c 0,0 63.982,51.985 125.964,9.997 61.983,-41.989 257.928,-297.917 257.928,-297.917 0,0 217.939,-325.908 279.921,-567.841 61.982,-241.932 69.981,-625.824 39.989,-815.771 -29.991,-189.947 -193.945,-625.825 -265.925,-757.787 -71.98,-131.964 -411.885,-571.84 -441.876,-601.832 -29.993,-29.992 -501.86,-497.86 -635.822,-599.831 -133.962,-101.972 -407.887,-275.923 -635.822,-371.896 -227.936,-95.973 -617.827,-157.956 -751.789,-159.955 -133.962,-2 -575.838,51.985 -675.81,107.97 -99.972,55.984 -371.896,171.951 -521.854,293.917 -149.958,121.966 -229.935,221.938 -229.935,221.938 0,0 1.999,81.977 11.995,95.973 z"
       id="path1266"
       inkscape:connector-curvature="0" />
    <path
       inkscape:connector-curvature="0"
       id="circle1268"
       d="m -48489.858,-37933.439 a 96.994316,96.994316 0 0 1 -137.17,0 96.994316,96.994316 0 0 1 0,-137.17 96.994316,96.994316 0 0 1 137.17,0 96.994316,96.994316 0 0 1 0,137.17 z"
       style="fill:#000000;fill-opacity:1;stroke:#ffffff;stroke-width:4.68226814;stroke-miterlimit:4;stroke-dasharray:none;stroke-opacity:1" />
    <path
       inkscape:connector-curvature="0"
       id="circle1270"
       d="m -47979.756,-37431.907 a 96.994316,96.994316 0 0 1 -137.171,0 96.994316,96.994316 0 0 1 0,-137.17 96.994316,96.994316 0 0 1 137.171,0 96.994316,96.994316 0 0 1 0,137.172 z"
       style="fill:#000000;fill-opacity:1;stroke:#ffffff;stroke-width:4.68226814;stroke-miterlimit:4;stroke-dasharray:none;stroke-opacity:1" />
    <path
       inkscape:connector-curvature="0"
       id="circle1272"
       d="m -47040.994,-36510.292 a 96.994316,96.994316 0 0 1 -137.171,0 96.994316,96.994316 0 0 1 0,-137.171 96.994316,96.994316 0 0 1 137.171,0 96.994316,96.994316 0 0 1 10e-4,137.171 z"
       style="fill:#000000;fill-opacity:1;stroke:#ffffff;stroke-width:4.68226814;stroke-miterlimit:4;stroke-dasharray:none;stroke-opacity:1" />
    <path
       inkscape:connector-curvature="0"
       id="circle1274"
       d="m -47499.658,-36960.384 a 96.994316,96.994316 0 0 1 -137.171,0 96.994316,96.994316 0 0 1 0,-137.17 96.994316,96.994316 0 0 1 137.171,0 96.994316,96.994316 0 0 1 0,137.17 z"
       style="fill:#000000;fill-opacity:1;stroke:#ffffff;stroke-width:4.68226814;stroke-miterlimit:4;stroke-dasharray:none;stroke-opacity:1" />
    <path
       inkscape:connector-curvature="0"
       id="circle1276"
       d="m -46582.329,-36471.713 a 96.994316,96.994316 0 0 1 -137.171,-10e-4 96.994316,96.994316 0 0 1 0,-137.17 96.994316,96.994316 0 0 1 137.171,0 96.994316,96.994316 0 0 1 0,137.172 z"
       style="fill:#000000;fill-opacity:1;stroke:#ffffff;stroke-width:4.68226814;stroke-miterlimit:4;stroke-dasharray:none;stroke-opacity:1" />
    <path
       inkscape:connector-curvature="0"
       id="circle1278"
       d="m -46590.903,-36034.483 a 96.994316,96.994316 0 0 1 -137.17,0 96.994316,96.994316 0 0 1 0,-137.17 96.994316,96.994316 0 0 1 137.171,0 96.994316,96.994316 0 0 1 -10e-4,137.17 z"
       style="fill:#000000;fill-opacity:1;stroke:#ffffff;stroke-width:4.68226814;stroke-miterlimit:4;stroke-dasharray:none;stroke-opacity:1" />
    <path
       inkscape:connector-curvature="0"
       id="circle1280"
       d="m -47542.525,-37526.213 a 96.994316,96.994316 0 0 1 -137.169,0 96.994316,96.994316 0 0 1 0,-137.17 96.994316,96.994316 0 0 1 137.169,0 96.994316,96.994316 0 0 1 0,137.17 z"
       style="fill:#000000;fill-opacity:1;stroke:#ffffff;stroke-width:4.68226814;stroke-miterlimit:4;stroke-dasharray:none;stroke-opacity:1" />
    <path
       inkscape:connector-curvature="0"
       id="circle1282"
       d="m -48974.243,-37414.762 a 96.994316,96.994316 0 0 1 -137.171,0 96.994316,96.994316 0 0 1 10e-4,-137.171 96.994316,96.994316 0 0 1 137.172,0 96.994316,96.994316 0 0 1 0,137.172 z"
       style="fill:#000000;fill-opacity:1;stroke:#ffffff;stroke-width:4.68226814;stroke-miterlimit:4;stroke-dasharray:none;stroke-opacity:1" />
    <path
       inkscape:connector-curvature="0"
       id="circle1284"
       d="m -48485.572,-36960.383 a 96.994316,96.994316 0 0 1 -137.171,0 96.994316,96.994316 0 0 1 0,-137.171 96.994316,96.994316 0 0 1 137.171,0 96.994316,96.994316 0 0 1 0,137.171 z"
       style="fill:#000000;fill-opacity:1;stroke:#ffffff;stroke-width:4.68226814;stroke-miterlimit:4;stroke-dasharray:none;stroke-opacity:1" />
    <path
       inkscape:connector-curvature="0"
       id="circle1286"
       d="m -46560.896,-35001.415 a 96.994316,96.994316 0 0 1 -137.171,0 96.994316,96.994316 0 0 1 0,-137.17 96.994316,96.994316 0 0 1 137.171,0 96.994316,96.994316 0 0 1 0,137.171 z"
       style="fill:#000000;fill-opacity:1;stroke:#ffffff;stroke-width:4.68226814;stroke-miterlimit:4;stroke-dasharray:none;stroke-opacity:1" />
    <path
       inkscape:connector-curvature="0"
       id="circle1288"
       d="m -47996.902,-36463.14 a 96.994316,96.994316 0 0 1 -137.17,0 96.994316,96.994316 0 0 1 0,-137.17 96.994316,96.994316 0 0 1 137.17,0 96.994316,96.994316 0 0 1 0,137.17 z"
       style="fill:#000000;fill-opacity:1;stroke:#ffffff;stroke-width:4.68226814;stroke-miterlimit:4;stroke-dasharray:none;stroke-opacity:1" />
    <path
       inkscape:connector-curvature="0"
       id="circle1290"
       d="m -47996.902,-37920.578 a 96.994316,96.994316 0 0 1 -137.17,0 96.994316,96.994316 0 0 1 0,-137.171 96.994316,96.994316 0 0 1 137.171,0 96.994316,96.994316 0 0 1 0,137.171 z"
       style="fill:#000000;fill-opacity:1;stroke:#ffffff;stroke-width:4.68226814;stroke-miterlimit:4;stroke-dasharray:none;stroke-opacity:1" />
    <path
       inkscape:connector-curvature="0"
       id="circle1292"
       d="m -47023.848,-37016.11 a 96.994316,96.994316 0 0 1 -137.171,0 96.994316,96.994316 0 0 1 0,-137.17 96.994316,96.994316 0 0 1 137.171,0 96.994316,96.994316 0 0 1 10e-4,137.171 z"
       style="fill:#000000;fill-opacity:1;stroke:#ffffff;stroke-width:4.68226814;stroke-miterlimit:4;stroke-dasharray:none;stroke-opacity:1" />
    <path
       inkscape:connector-curvature="0"
       id="circle1294"
       d="m -47079.573,-35502.945 a 96.994316,96.994316 0 0 1 -137.171,0 96.994316,96.994316 0 0 1 0,-137.17 96.994316,96.994316 0 0 1 137.171,0 96.994316,96.994316 0 0 1 0,137.171 z"
       style="fill:#000000;fill-opacity:1;stroke:#ffffff;stroke-width:4.68226814;stroke-miterlimit:4;stroke-dasharray:none;stroke-opacity:1" />
    <path
       inkscape:connector-curvature="0"
       id="circle1296"
       d="m -47105.292,-36060.201 a 96.994316,96.994316 0 0 1 -137.171,0 96.994316,96.994316 0 0 1 0,-137.171 96.994316,96.994316 0 0 1 137.17,0 96.994316,96.994316 0 0 1 0,137.17 z"
       style="fill:#000000;fill-opacity:1;stroke:#ffffff;stroke-width:4.68226814;stroke-miterlimit:4;stroke-dasharray:none;stroke-opacity:1" />
    <path
       inkscape:connector-curvature="0"
       id="circle1298"
       d="m -47508.231,-36454.566 a 96.994316,96.994316 0 0 1 -137.171,0 96.994316,96.994316 0 0 1 0,-137.171 96.994316,96.994316 0 0 1 137.172,0 96.994316,96.994316 0 0 1 0,137.172 z"
       style="fill:#000000;fill-opacity:1;stroke:#ffffff;stroke-width:4.68226814;stroke-miterlimit:4;stroke-dasharray:none;stroke-opacity:1" />
    <path
       inkscape:connector-curvature="0"
       id="circle1300"
       d="m -47932.602,-36904.659 a 96.994316,96.994316 0 0 1 -137.17,0 96.994316,96.994316 0 0 1 0,-137.171 96.994316,96.994316 0 0 1 137.171,0 96.994316,96.994316 0 0 1 0,137.171 z"
       style="fill:#000000;fill-opacity:1;stroke:#ffffff;stroke-width:4.68226814;stroke-miterlimit:4;stroke-dasharray:none;stroke-opacity:1" />
    <path
       inkscape:connector-curvature="0"
       id="circle1302"
       d="m -48485.572,-37491.921 a 96.994316,96.994316 0 0 1 -137.171,0 96.994316,96.994316 0 0 1 0,-137.171 96.994316,96.994316 0 0 1 137.171,10e-4 96.994316,96.994316 0 0 1 0,137.17 z"
       style="fill:#000000;fill-opacity:1;stroke:#ffffff;stroke-width:4.68226814;stroke-miterlimit:4;stroke-dasharray:none;stroke-opacity:1" />
    <path
       inkscape:connector-curvature="0"
       id="circle1304"
       d="m -48987.101,-37993.45 a 96.994316,96.994316 0 0 1 -137.171,0 96.994316,96.994316 0 0 1 0,-137.171 96.994316,96.994316 0 0 1 137.171,10e-4 96.994316,96.994316 0 0 1 0,137.17 z"
       style="fill:#000000;fill-opacity:1;stroke:#ffffff;stroke-width:4.68226814;stroke-miterlimit:4;stroke-dasharray:none;stroke-opacity:1" />
    <path
       inkscape:connector-curvature="0"
       id="circle1306"
       d="m -47589.675,-35944.463 a 96.994316,96.994316 0 0 1 -137.17,0 96.994316,96.994316 0 0 1 0,-137.17 96.994316,96.994316 0 0 1 137.17,0 96.994316,96.994316 0 0 1 0,137.171 z"
       style="fill:#000000;fill-opacity:1;stroke:#ffffff;stroke-width:4.68226814;stroke-miterlimit:4;stroke-dasharray:none;stroke-opacity:1" />
    <path
       inkscape:connector-curvature="0"
       id="circle1308"
       d="m -46539.463,-35537.237 a 96.994316,96.994316 0 0 1 -137.17,0 96.994316,96.994316 0 0 1 0,-137.171 96.994316,96.994316 0 0 1 137.17,-10e-4 96.994316,96.994316 0 0 1 0,137.172 z"
       style="fill:#000000;fill-opacity:1;stroke:#ffffff;stroke-width:4.68226814;stroke-miterlimit:4;stroke-dasharray:none;stroke-opacity:1" />
    <path
       inkscape:connector-curvature="0"
       id="circle1310"
       d="m -49480.06,-37912.006 a 96.994316,96.994316 0 0 1 -137.17,0 96.994316,96.994316 0 0 1 0,-137.17 96.994316,96.994316 0 0 1 137.17,0 96.994316,96.994316 0 0 1 0,137.17 z"
       style="fill:#000000;fill-opacity:1;stroke:#ffffff;stroke-width:4.68226814;stroke-miterlimit:4;stroke-dasharray:none;stroke-opacity:1" />
    <path
       inkscape:connector-curvature="0"
       id="circle1312"
       d="m -49638.663,-37453.341 a 96.994316,96.994316 0 0 1 -137.171,0 96.994316,96.994316 0 0 1 0,-137.17 96.994316,96.994316 0 0 1 137.171,0 96.994316,96.994316 0 0 1 0,137.171 z"
       style="fill:#000000;fill-opacity:1;stroke:#ffffff;stroke-width:4.68226814;stroke-miterlimit:4;stroke-dasharray:none;stroke-opacity:1" />
    <path
       inkscape:connector-curvature="0"
       id="circle1314"
       d="m -49051.401,-36908.945 a 96.994316,96.994316 0 0 1 -137.171,0 96.994316,96.994316 0 0 1 0,-137.17 96.994316,96.994316 0 0 1 137.171,0 96.994316,96.994316 0 0 1 0,137.17 z"
       style="fill:#000000;fill-opacity:1;stroke:#ffffff;stroke-width:4.68226814;stroke-miterlimit:4;stroke-dasharray:none;stroke-opacity:1" />
    <path
       inkscape:connector-curvature="0"
       id="circle1316"
       d="m -48507.006,-36433.135 a 96.994316,96.994316 0 0 1 -137.169,0 96.994316,96.994316 0 0 1 0,-137.171 96.994316,96.994316 0 0 1 137.171,10e-4 96.994316,96.994316 0 0 1 0,137.17 z"
       style="fill:#000000;fill-opacity:1;stroke:#ffffff;stroke-width:4.68226814;stroke-miterlimit:4;stroke-dasharray:none;stroke-opacity:1" />
    <path
       inkscape:connector-curvature="0"
       id="circle1318"
       d="m -47636.827,-35468.652 a 96.994316,96.994316 0 0 1 -137.171,0 96.994316,96.994316 0 0 1 0,-137.17 96.994316,96.994316 0 0 1 137.171,-10e-4 96.994316,96.994316 0 0 1 0,137.171 z"
       style="fill:#000000;fill-opacity:1;stroke:#ffffff;stroke-width:4.68226814;stroke-miterlimit:4;stroke-dasharray:none;stroke-opacity:1" />
    <path
       inkscape:connector-curvature="0"
       id="circle1320"
       d="m -48057.633,-35969.102 a 96.994316,96.994316 0 0 1 -137.171,0 96.994316,96.994316 0 0 1 0,-137.17 96.994316,96.994316 0 0 1 137.171,0 96.994316,96.994316 0 0 1 0,137.172 z"
       style="fill:#000000;fill-opacity:1;stroke:#ffffff;stroke-width:4.68226814;stroke-miterlimit:4;stroke-dasharray:none;stroke-opacity:1" />
    <path
       inkscape:connector-curvature="0"
       id="circle1322"
       d="m -47071,-34937.116 a 96.994316,96.994316 0 0 1 -137.171,-10e-4 96.994316,96.994316 0 0 1 0,-137.17 96.994316,96.994316 0 0 1 137.171,0 96.994316,96.994316 0 0 1 0,137.172 z"
       style="fill:#000000;fill-opacity:1;stroke:#ffffff;stroke-width:4.68226814;stroke-miterlimit:4;stroke-dasharray:none;stroke-opacity:1" />
    <path
       style="fill:#ffffff;fill-opacity:1;stroke:#ffffff;stroke-width:67.10785675;stroke-linecap:butt;stroke-linejoin:miter;stroke-miterlimit:4;stroke-dasharray:none;stroke-opacity:1"
       d="m -52762.206,-35539.353 3528.968,3526.071 c 0,0 30.409,68.06 11.584,107.158 -18.826,39.098 -147.704,144.808 -183.906,163.633 -36.203,18.824 -267.894,134.671 -340.298,123.086 -72.405,-11.584 -92.677,26.066 -283.824,-17.377 -191.146,-43.442 -262.103,-97.021 -341.746,-162.184 -79.644,-65.164 -2583.373,-2580.477 -2583.373,-2580.477 0,0 -114.398,-146.256 -146.256,-247.621 -31.858,-101.366 -72.403,-223.004 -59.371,-357.675 13.032,-134.672 73.852,-314.233 149.153,-418.495 75.298,-104.262 128.879,-146.256 128.879,-146.256 0,0 89.78,-20.273 120.19,10.137 z"
       id="path1326"
       inkscape:connector-curvature="0" />
    <path
       style="fill:#ffffff;fill-opacity:1;stroke:#ffffff;stroke-width:7.25053263px;stroke-linecap:butt;stroke-linejoin:miter;stroke-opacity:1"
       d="m -54731.666,-40596.283 c 0,0 70.349,205.913 172.741,352.164 102.39,146.248 164.109,255.813 317.908,433.535 153.799,177.722 301.758,333.654 458.372,464.353 156.617,130.7 587.676,390.311 587.676,390.311 0,0 253.278,155.593 407.216,305.544 153.941,149.954 294.523,274.587 464.212,486.142 169.692,211.557 307.313,410.979 307.313,410.979 0,0 -79.55,-191.191 -143.035,-304.516 -63.484,-113.323 -290.366,-427.921 -398.652,-546.177 -108.284,-118.251 -317.249,-329.21 -450.995,-433.052 -133.748,-103.845 -589.668,-388.316 -589.668,-388.316 0,0 -239.009,-153.286 -418.811,-327.107 -179.801,-173.82 -308.874,-298.907 -490.929,-536.781 -182.049,-237.87 -223.348,-307.079 -223.348,-307.079 z"
       id="path1328"
       inkscape:connector-curvature="0" />
    <path
       inkscape:connector-curvature="0"
       id="path1330"
       d="m -54547.023,-40062.041 c 0,0 70.354,205.917 172.741,352.163 102.39,146.248 164.108,255.813 317.908,433.535 153.798,177.721 301.757,333.654 458.373,464.354 156.616,130.7 587.673,390.308 587.673,390.308 0,0 253.277,155.593 407.218,305.547 153.94,149.952 294.521,274.585 464.213,486.142 169.691,211.556 307.313,410.979 307.313,410.979 0,0 -79.548,-191.189 -143.035,-304.515 -63.487,-113.326 -290.369,-427.925 -398.651,-546.175 -108.288,-118.256 -317.252,-329.214 -450.999,-433.058 -133.745,-103.841 -589.665,-388.313 -589.665,-388.313 0,0 -239.01,-153.287 -418.811,-327.108 -179.799,-173.817 -308.877,-298.908 -490.929,-536.78 -182.049,-237.87 -223.349,-307.079 -223.349,-307.079 z"
       style="fill:#ffffff;fill-opacity:1;stroke:#ffffff;stroke-width:7.25053263px;stroke-linecap:butt;stroke-linejoin:miter;stroke-opacity:1" />
    <path
       style="fill:#0f0f0f;fill-opacity:1;stroke:#000000;stroke-width:4.68226814px;stroke-linecap:butt;stroke-linejoin:miter;stroke-opacity:1"
       d="m -51558.969,-37151.048 2720.388,2723.419 42.436,-42.435 -2720.388,-2720.388 z"
       id="path1332"
       inkscape:connector-curvature="0" />
    <path
       style="fill:#000000;fill-opacity:1;stroke:#000000;stroke-width:4.68226814px;stroke-linecap:butt;stroke-linejoin:miter;stroke-opacity:1"
       d="m -51453.262,-37234.622 2711.294,2711.294 39.404,-39.404 -2684.014,-2687.046 c 0,0 -19.702,-15.155 -37.511,-4.168 -17.807,10.989 -29.173,19.324 -29.173,19.324 z"
       id="path1334"
       inkscape:connector-curvature="0" />
    <path
       inkscape:connector-curvature="0"
       id="path944"
       d="M -47566.367,-34391.822 Z"
       style="fill:none;stroke:#000000;stroke-width:1px;stroke-linecap:butt;stroke-linejoin:miter;stroke-opacity:1" />
  </g>
</svg>
