<?xml version="1.0" encoding="UTF-8" standalone="no"?>
<!-- Created with Inkscape (http://www.inkscape.org/) -->

<svg
   xmlns:dc="http://purl.org/dc/elements/1.1/"
   xmlns:cc="http://creativecommons.org/ns#"
   xmlns:rdf="http://www.w3.org/1999/02/22-rdf-syntax-ns#"
   xmlns:svg="http://www.w3.org/2000/svg"
   xmlns="http://www.w3.org/2000/svg"
   xmlns:sodipodi="http://sodipodi.sourceforge.net/DTD/sodipodi-0.dtd"
   xmlns:inkscape="http://www.inkscape.org/namespaces/inkscape"
   version="1.1"
   id="svg2"
   width="4441.7368"
   height="611.63257"
   viewBox="0 0 4441.7369 611.63259"
   sodipodi:docname="smoke.svg"
   inkscape:version="0.92.3 (2405546, 2018-03-11)">
  <metadata
     id="metadata8">
    <rdf:RDF>
      <cc:Work
         rdf:about="">
        <dc:format>image/svg+xml</dc:format>
        <dc:type
           rdf:resource="http://purl.org/dc/dcmitype/StillImage" />
        <dc:title></dc:title>
      </cc:Work>
    </rdf:RDF>
  </metadata>
  <defs
     id="defs6" />
  <sodipodi:namedview
     pagecolor="#ffffff"
     bordercolor="#666666"
     borderopacity="1"
     objecttolerance="10"
     gridtolerance="10"
     guidetolerance="10"
     inkscape:pageopacity="0"
     inkscape:pageshadow="2"
     inkscape:window-width="1920"
     inkscape:window-height="1057"
     id="namedview4"
     showgrid="false"
     inkscape:zoom="0.08"
     inkscape:cx="5470.8158"
     inkscape:cy="-4066.3655"
     inkscape:window-x="1912"
     inkscape:window-y="-8"
     inkscape:window-maximized="1"
     inkscape:current-layer="svg2"
     fit-margin-top="0"
     fit-margin-left="0"
     fit-margin-right="0"
     fit-margin-bottom="0" />
  <path
     inkscape:connector-curvature="0"
     id="path1328"
     d="m 1.5970351,136.58655 c 0,0 195.3460049,95.8582 371.1630049,126.8712 175.814,31.0123 296.93,64.8445 531.35,81.7599 234.42196,16.9168 449.30496,22.5546 652.46596,4.2299 203.164,-18.3261 691.541,-139.5581 691.541,-139.5581 0,0 289.116,-69.0737 503.998,-71.893 214.886,-2.8192 402.421,-14.0968 672.001,15.5069 269.584,29.603 507.91,73.3029 507.91,73.3029 0,0 -191.443,-78.9421 -316.467,-114.1843 C 3490.538,77.380454 3107.653,15.355154 2947.464,8.3060539 2787.28,1.2583539 2490.349,-0.15164612 2322.349,20.993654 2154.346,42.138954 1630.81,163.37105 1630.81,163.37105 c 0,0 -277.395,60.6153 -527.444,64.8445 -250.04796,4.2292 -429.76596,7.0477 -726.70096,-32.4223 C 79.738035,156.32185 1.5970351,136.58655 1.5970351,136.58655 Z"
     style="fill:#ffffff;fill-opacity:1;stroke:#ffffff;stroke-width:7.25053263px;stroke-linecap:butt;stroke-linejoin:miter;stroke-opacity:1" />
  <path
     style="fill:#ffffff;fill-opacity:1;stroke:#ffffff;stroke-width:7.25053263px;stroke-linecap:butt;stroke-linejoin:miter;stroke-opacity:1"
     d="m 509.92504,383.79035 c 0,0 195.353,95.8575 371.163,126.8705 175.81396,31.0123 296.92896,64.8452 531.35096,81.7606 234.419,16.9162 449.303,22.5546 652.466,4.2292 203.163,-18.3253 691.537,-139.5581 691.537,-139.5581 0,0 289.115,-69.073 504.001,-71.8922 214.884,-2.82 402.419,-14.0969 672.003,15.5061 269.582,29.603 507.909,73.3029 507.909,73.3029 0,0 -191.44,-78.9421 -316.466,-114.1836 -125.026,-35.2415 -507.91,-97.2667 -668.093,-104.3152 -160.191,-7.0484 -457.12,-8.4584 -625.122,12.6862 -167.999,21.1453 -691.535,142.3774 -691.535,142.3774 0,0 -277.396,60.6153 -527.445,64.8438 -250.044,4.2299 -429.769,7.0491 -726.69996,-32.4216 -296.927,-39.4714 -375.069,-59.206 -375.069,-59.206 z"
     id="path1330"
     inkscape:connector-curvature="0" />
</svg>
